<svg data-name="Layer 1" width="613.131" height="556.415" viewBox="0 0 613.131 556.415" xmlns="http://www.w3.org/2000/svg"><path d="M612.15 553.837H452.885v-4.887a16 16 0 0 1 16-16h127.266a16 16 0 0 1 16 16v4.887z" fill="#e6e6e6" style="fill:#767676;fill-opacity:1"/><path d="m528.791 533.925 4.843-1.95c-50.677-125.79-45.795-284.483-2.956-420.613a85.005 85.005 0 0 0-24.764-89.935C481.049-.762 446.769-6.167 416.447 7.319c-29.93 13.314-34.056 36.505-34.056 59.583h5.221c0-24.635 5.265-43.383 30.957-54.812 28.42-12.639 60.555-7.57 83.867 13.234a79.839 79.839 0 0 1 23.261 84.47c-43.333 137.702-47.929 297.485 3.094 424.131z" fill="#e6e6e6" style="fill:#a2a2a2;fill-opacity:1"/><circle cx="386.307" cy="125.648" r="18.276" fill="#e6e6e6" style="fill:#e4d700;fill-opacity:1"/><path d="M358.16 157.509v-34.63h5.384v34.63a7.18 7.18 0 1 1-5.384 0z" fill="#e6e6e6" style="fill:#e5e5e5;fill-opacity:1"/><path d="M332.131 96.275a30.06 30.06 0 0 1 30.025-30.026h49.607a30.026 30.026 0 1 1 0 60.051h-49.607a30.06 30.06 0 0 1-30.025-30.025Z" fill="#f2681b"/><path d="M262.236 282.212c4.98-63.723 30.447-94.084 14.14-113.123-15.62-18.238-59.616-14.47-87.872 3.03-76.212 47.202-104.134 235.332-6.06 327.248 93.194 87.344 269.817 59.37 309.068-12.12 9.158-16.68 16.434-45.922 3.03-63.632-33.278-43.967-154.27 35.67-208.065-14.14-31.881-29.519-26.974-92.293-24.241-127.263z" fill="#3f3d56" style="fill:#054b72;fill-opacity:1"/><path d="M320.493 250.554a7.822 7.822 0 0 0-3.923 10.18 7.504 7.504 0 0 0 .597 1.087l-16.358 21.842 8.162 12.2 19.174-32.344a7.8 7.8 0 0 0 2.373-9.222 7.465 7.465 0 0 0-9.838-3.828q-.094.04-.187.085z" fill="#ffb6b6"/><path d="M320.48 288.212c1.07.95-1.899 2.121-5.04.273-.899-.535-1.283-.758-1.384-.616-.252.353 1.223 2.96.829 8.747-.243 3.454-5.98 9.948-12.494 16.281-8.808 8.565-19.05 16.827-19.05 16.827l-3.595-2.878-37.704-30.23-6.364-8.808a62.681 62.681 0 0 1 2.616-10.231 111.546 111.546 0 0 1 5.677-13.474 162.07 162.07 0 0 1 3.525-6.717l20.2 22.261 16.928 18.645s4.93-7.938 8.747-10.1a3.636 3.636 0 0 1 1.616-.555c3.859-.182 4.09-2.283-.384-6.859-4.474-4.575 1.172-.303 5.151-1.535 3.98-1.232 0 0 .839-3.08.838-3.081 11.999-9.262 11.999-9.262l.465.414 8.433 7.444 2.414 2.13s-2.636 7.233-3.363 8.758c-.727 1.525-1.121 1.606-.06 2.565z" fill="#f2681b"/><path fill="#ffb6b6" d="m542.804 428.521.411-11.141-42.776-6.887-.607 16.442z"/><path d="m535.039 431.875-.405-17.838 7.625.281 12.312-16.49a4.767 4.767 0 0 1 8.583 3.027l-.782 21.19-7.678 3.374 7.49 1.704-.294 7.99z" fill="#2f2e41"/><path d="m302.055 432.858 135.488 3.435s58.508 3.38 72.236-5.55l14.476-1.828.785-21.264s-8.853.066-13.942-2.306-1.552-5.273-6.405-2.42c-4.853 2.853-4.34 3.197-8.091 1.886-3.751-1.311-175.795-27.535-175.795-27.535z" fill="#2f2e41" style="fill:#000;fill-opacity:1"/><path fill="#ffb6b6" d="m480.592 423.631 7.879-7.887-26.675-34.143-11.628 11.642z"/><path d="m472.619 416.769 11.835-13.353 5.399 5.393 20.24-3.716a4.767 4.767 0 0 1 4.234 8.057l-14.985 15.002-7.924-2.748 4.332 6.344-5.65 5.656z" fill="#2f2e41" style="fill:#2f2e41;fill-opacity:1"/><path d="m248.601 358.657 1.347 31.31c1.586 36.859 42.178 59.168 73.654 39.923q.87-.532 1.747-1.103s11.932-3.204 11.57-8.28c-.362-5.076 2.553-7.544 5.133-6.16 2.58 1.384 36.357-46.553 36.357-46.553s70.178 35.007 85.66 43.247c0 0 14.556-22.759 13.5-22.52-1.056.239-86.818-59.788-86.818-59.788s-13.972-14.14-31.304-4.804c-.36 1.371-.052 1.419-.052 1.419L302.142 372l-8.09-15.364z" fill="#2f2e41" style="fill:#000;fill-opacity:1"/><path d="M302.583 319.513a32.354 32.354 0 0 1-.617 4.303 25.39 25.39 0 0 1-1.98 5.939s0 2.11-4.04 9.18 1.01 4.04 4.04 9.293c3.03 5.242 0 2.828-3.363 6.202a7.722 7.722 0 0 0-1.909 7.605s-43.39.03-51.47-3c-8.08-3.03-9.919-20.1-2.677-21.786 7.232-1.687-2.192-3.363-6.444-7.252s4.252-10.252 4.252-10.252-3.505-6.05-3.212-26.361a40.03 40.03 0 0 1 .515-5.576 62.681 62.681 0 0 1 2.616-10.231 111.546 111.546 0 0 1 5.677-13.474 162.07 162.07 0 0 1 3.525-6.717c.181-.323.353-.636.535-.95a169.766 169.766 0 0 1 5.515-9.08c1.02-1.575 1.636-2.464 1.636-2.464l7.353-12.787 24.544 11.504-1.394 18.817 4.232 14.191 1.949 6.535 1.505 5.04 2.323 7.808s-.636.03.121 1.07a34.484 34.484 0 0 1 6.576 15.827 32.227 32.227 0 0 1 .192 6.616z" fill="#f2681b"/><path d="m373.462 321.541-.46-.149-58.745-18.917 21.647-71.016a9.768 9.768 0 0 1 14.311-5.562l37.54 22.179a14.715 14.715 0 0 1 6.319 17.788z" fill="#2f2e41"/><path d="m373.7 326.056-59.217-19.07 21.647-71.016a9.768 9.768 0 0 1 14.312-5.562l39.332 19.637c5.91 3.49 5.771 12.524 3.027 19.936z" fill="#f2681b" style="fill:#fff;fill-opacity:1"/><path d="M367.772 331.196a11.29 11.29 0 0 1-9.05.9l-37.85-12.19a11.704 11.704 0 0 1-7.575-14.489l18.976-62.255a9.767 9.767 0 0 1 12.39-6.431l39.225 12.879a14.722 14.722 0 0 1 9.265 18.958l-20.29 56.566a11.304 11.304 0 0 1-5.091 6.062z" fill="#3f3d56" style="fill:#171720;fill-opacity:1"/><circle cx="285.691" cy="205.214" r="27.11" fill="#ffb6b6"/><path d="M194.018 232.732a23.51 23.51 0 0 0 11.546 10.793 27.033 27.033 0 0 0 6.221 1.97 24.326 24.326 0 0 1 2.88-6.816 20.083 20.083 0 0 0 0 7.2 23.9 23.9 0 0 0 9.663-1.2 20.726 20.726 0 0 0 13.033-13.204c2.16-7.186-.166-14.862-.35-22.362-.188-7.502 3.374-16.474 10.821-17.402 5.671-.708 4.97-.159 9.045 3.848-5.7 6.332 8.196 34.377 15.653 33.138 4.215-.701 7.318-4.048 8.152-3.932 4.27 10.456-8.574 25.286 1.612 30.154l-.756-1c-5.332-8.809 10.446-23.686 5.114-32.494-1.487-2.464-3.032-5.353-2.113-8.08.873-2.59 5.293-3.411 6.226-1.052-1.516-5.407 2.716-11.753 8.338-12.304 4.994-.493 4.706.93 9.467 2.229a24.293 24.293 0 0 1 2.608-5.835 19.918 19.918 0 0 0-.14 6.297 7.855 7.855 0 0 0 4.942-1.046c4.398-2.636 4.528-9.44 1.508-13.582-3.026-4.141-8.095-6.187-12.985-7.734-.045-10.342-27.872-15.292-32.99-5.677-.526-7.785-9.45-13.03-17.138-11.707-7.688 1.323-13.752 7.486-17.45 14.357-3.696 6.865-5.531 14.552-8.238 21.865-2.707 7.313-6.575 14.604-13.055 18.943-6.48 4.333-16.11 4.727-21.52-.89a17.168 17.168 0 0 0-.094 15.523z" fill="#2f2e41" style="fill:#000;fill-opacity:1"/><path d="M221.835 356.705a9.788 9.788 0 0 1 1.814-1.15c10.377-5.164 42.646-18.57 67.878-18.02 48.548 1.059 110.331 54.638 95.952 90.618-10.941 27.377-65.336 42.953-105.043 30.496-55.625-17.453-77.582-88.406-60.601-101.944z" fill="#3f3d56"/><path d="M20.292 553.94c-15.864-2.992-29.906-74.46 1.305-109.658 10.694-12.06 24.032-17.308 41.775-22.193 102.121-28.115 180.011-1.32 190.478 5.222 10.444 6.527 28.753 104.875 5.34 118.796-13.172 7.833-39.282 11.75-52.218 2.611-19.035-13.446 12.915-48.323-1.305-71.8-16.138-26.64-101.115-35.614-143.719-9.138-45.453 28.247 48.302 103.131-41.656 86.16z" fill="#f2f2f2" style="fill:#b24100;fill-opacity:1"/><path d="M126.353 432.43H65.749c-14.96-14.338-25.658-28.156-17.094-39.626a12.432 12.432 0 0 1 12.432-12.432h69.928a12.432 12.432 0 0 1 12.432 12.432c3.26 13.07-2.565 26.28-17.094 39.626z" fill="#ccc" style="fill:#7a330b;fill-opacity:1"/><path d="M115.469 364.722a2.807 2.807 0 0 1-2.034-4.866l.192-.765-.076-.183a7.54 7.54 0 0 0-13.907.051c-2.275 5.479-5.17 10.966-5.884 16.758a22.304 22.304 0 0 0 .392 7.67 89.42 89.42 0 0 1-8.134-37.138 86.307 86.307 0 0 1 .535-9.628q.444-3.932 1.23-7.807a90.456 90.456 0 0 1 17.939-38.337 24.073 24.073 0 0 0 10.012-10.387 18.363 18.363 0 0 0 1.67-5.018c-.488.064-1.838-7.36-1.47-7.815-.68-1.03-1.896-1.543-2.637-2.549-3.69-5.002-8.773-4.128-11.426 2.669-5.67 2.861-5.724 7.606-2.246 12.17 2.213 2.902 2.517 6.83 4.459 9.939-.2.256-.408.503-.607.76a91.04 91.04 0 0 0-9.503 15.053 37.846 37.846 0 0 0-2.26-17.579c-2.162-5.217-6.215-9.611-9.785-14.121-4.288-5.418-13.08-3.054-13.836 3.814l-.021.2q.795.448 1.557.952a3.808 3.808 0 0 1-1.536 6.93l-.077.012a37.89 37.89 0 0 0 .999 5.665c-4.58 17.71 5.307 24.16 19.424 24.45.312.16.615.32.927.472a92.924 92.924 0 0 0-5.002 23.539 88.135 88.135 0 0 0 .064 14.23l-.024-.167a23.29 23.29 0 0 0-7.95-13.448c-6.119-5.026-14.763-6.876-21.363-10.916a4.37 4.37 0 0 0-6.694 4.252l.027.176a25.578 25.578 0 0 1 2.868 1.382q.795.45 1.557.953a3.808 3.808 0 0 1-1.535 6.93l-.078.012-.16.024a37.923 37.923 0 0 0 6.976 10.923c2.863 15.46 15.162 16.927 28.317 12.424h.008a92.897 92.897 0 0 0 6.24 18.218h22.294c.08-.247.151-.503.223-.75a25.329 25.329 0 0 1-6.168-.368c1.654-2.03 3.308-4.076 4.962-6.105a1.384 1.384 0 0 0 .104-.12c.839-1.039 1.686-2.07 2.525-3.108v-.001a37.101 37.101 0 0 0-1.087-9.452z" fill="#ccc" style="fill:#166b00;fill-opacity:1"/><path d="M191.506 429.183a5.385 5.385 0 0 0 5.189 3.634l22.233-.572a5.311 5.311 0 0 0 5.019-3.908l3.146-33.643a8.22 8.22 0 0 0 3.557.731 8.108 8.108 0 0 0-.407-16.21 6.869 6.869 0 0 0-1.457.15 5.495 5.495 0 0 0-4.09-1.764l-34.2.883a4.912 4.912 0 0 0-.843.105 5.341 5.341 0 0 0-4.09 6.935zm36.232-36.773 2.24-8.017a5.46 5.46 0 0 0 .016-2.832c.109 0 .205-.052.313-.052a5.8 5.8 0 0 1 .272 11.596 5.46 5.46 0 0 1-2.84-.695z" fill="#ccc"/><path d="M189.653 378.589c.728 4.166 8.92 7.094 18.77 6.585 9.057-.417 16.463-3.598 17.82-7.367a5.057 5.057 0 0 0-1.548-.206l-34.199.883a4.912 4.912 0 0 0-.843.105z" fill="#fff"/><path d="M353.142 289.413a7.822 7.822 0 0 0-7.537 7.889 7.505 7.505 0 0 0 .133 1.233l-23.498 13.873 2.844 14.4 30.136-22.484a7.8 7.8 0 0 0 5.737-7.601 7.465 7.465 0 0 0-7.61-7.317q-.103.002-.205.007z" fill="#ffb6b6"/><path d="M333.892 322.487c-.629-.843-.899-1.195-1.042-1.099-.368.222-.014 3.198-2.602 8.383-3.643 7.285-41.844 18.442-41.844 18.442l-4.703-8.61-20.688-37.84-7.13-30.33a13.53 13.53 0 0 1-.361-3.227 128.177 128.177 0 0 1 20.171-11.611 13.504 13.504 0 0 1 6.06 7.22l14.241 39.93 5.683 15.941s10.024-7.168 13.66-5.852c3.63 1.324 4.662-.532 2.29-6.475-2.374-5.942 1.188.175 5.333.564 4.153.394 0 0 1.961-2.522s14.645-3.94 14.645-3.94l.27.562 4.915 10.11 1.407 2.905s-5.21 5.654-6.468 6.78c-1.263 1.135-1.653 1.057-1.035 2.35.61 1.287-2.58 1.229-4.763-1.682z" fill="#f2681b"/></svg>