<svg width="1120" height="1100" viewBox="0 0 1120 1100" xmlns="http://www.w3.org/2000/svg"><path style="fill:#000;stroke-width:.956858" d="M1360 1290a560 550 0 0 1-559.983 550A560 550 0 0 1 240 1290.033 560 550 0 0 1 799.95 740 560 550 0 0 1 1360 1289.935" transform="translate(-240 -740)"/><path style="fill:#00bfff" d="m420 1580 260-680h240l260 680h-180l-200-540-200 540Z" transform="translate(-240 -740)"/><path style="fill:#00bfff" d="M705.834 1475.834c5.834-5.834 17.5-5.834 45-5.834h98.334c27.5 0 39.166 0 45 5.834 5.832 5.834 5.832 17.5 5.832 29.167v35c0 11.667 0 23.333-5.833 29.166-5.833 5.833-17.5 5.833-45.833 5.833H747.5c-27.5 0-37.5 0-42.5-5.833-5.001-5.833-5.001-17.5-5.001-29.166v-35c0-11.667 0-23.333 5.834-29.167z" transform="translate(-240 -740)"/></svg>