<svg xmlns="http://www.w3.org/2000/svg" width="1120" height="1100" viewBox="0 0 1120 1100"><path style="fill:#000;stroke-width:.956858" d="M799.95 740A560 550 0 0 0 240 1290.033 560 550 0 0 0 800.018 1840 560 550 0 0 0 1360 1290v-.064A560 550 0 0 0 799.95 740zM680 900h240l260 680h-180l-200-540-200 540H420l260-680zm70.834 570h98.334c27.5 0 39.166 0 45 5.834 5.832 5.834 5.832 17.501 5.832 29.168v35c0 11.667.001 23.333-5.832 29.166-5.833 5.833-17.501 5.832-45.834 5.832H747.5c-27.5 0-37.5.001-42.5-5.832-5.001-5.833-5.002-17.5-5.002-29.166v-35c0-11.667 0-23.334 5.834-29.168h.002c5.834-5.834 17.5-5.834 45-5.834z" transform="translate(-240 -740)"/></svg>