<svg data-name="Layer 1" width="666.932" height="675.624" viewBox="0 0 666.932 675.624" xmlns="http://www.w3.org/2000/svg"><path d="m410.674 621.18-9.474-6.035a141.392 141.392 0 0 1-.407-15.931l4.914 1.255-4.85-3.09c.267-6.569.86-10.902.86-10.902s19.156 12.442 31.372 29.307l-2.083 14.263 4.968-9.974a57.2 57.2 0 0 1 3.418 6.324c10.065 21.988 11.043 43.101 2.184 47.156s-24.2-10.483-34.265-32.472a75.308 75.308 0 0 1-5.735-22.225Z" fill="#e6e6e6"/><path d="m391.214 642.405-11.23-.27a141.392 141.392 0 0 1-8.584-13.427l4.856-1.466-5.75-.138c-3.165-5.761-4.897-9.777-4.897-9.777s22.829.75 42.004 8.872l5.59 13.286-.904-11.106a57.202 57.202 0 0 1 6.195 3.647c19.982 13.62 31.733 31.188 26.245 39.239s-26.135 3.535-46.117-10.086a75.309 75.309 0 0 1-16.398-16.061Z" fill="#e6e6e6"/><path fill="#a0616a" d="m457.583 662.235-12.26-.001-4.599-47.686 16.861.399-.002 47.288z"/><path d="m460.709 674.119-39.53-.002v-.5a15.387 15.387 0 0 1 15.386-15.386h.001l24.144.001Z" fill="#2f2e41"/><path fill="#a0616a" d="m602.22 626.845-8.041 9.254-39.522-26.611 11.868-13.659 35.695 31.016z"/><path d="m613.242 632.279-25.928 29.84-.377-.328a15.387 15.387 0 0 1-1.524-21.706v-.001l15.837-18.225Z" fill="#2f2e41"/><path d="M665.741 675.624H331.448a1.19 1.19 0 0 1 0-2.381h334.293a1.19 1.19 0 1 1 0 2.381Z" fill="#cacaca"/><path d="m484.519 549.986-25.795 95.562h-20l4.393-104.514 11.595-101.826 42.115-2.238Z" fill="#2f2e41"/><path d="M529.277 439.208s2.238 14.547-6.714 30.212-3.357 68.257-3.357 68.257l75.518 75.871s-11.736 20.36-17.331 19.242-93.993-72.733-93.993-72.733l-28.688-116.373Z" fill="#2f2e41"/><circle cx="487.638" cy="244.08" r="25.736" fill="#a0616a"/><path d="M488.724 284.548s30-11.357 30-8 29.576 31.741 22.862 68.667-14.547 54.83-11.19 74.97 1.12 24.618 1.12 24.618-77.923 6.714-79.042-1.119 3.25-19.779 3.25-23.136 30.92-127.361 33-136Z" fill="#575a89"/><path opacity=".2" style="isolation:isolate" d="m522.527 394.596-29.616 48.529h10.07l19.546-48.529z"/><path d="M499.286 259.545c-2.083-1.101-4.504-1.328-6.759-2.013-8.068-2.45-13.473-11.57-11.748-19.824a10.115 10.115 0 0 0 .424-3.267c-.301-2.445-2.803-4.022-5.201-4.582s-4.95-.479-7.243-1.38c-3.54-1.39-5.89-5.028-6.4-8.796a18.171 18.171 0 0 1 2.427-10.952l.866 2.493a9.247 9.247 0 0 0 2.831-4.234 5.832 5.832 0 0 1 4.444 3.573c1.39.82 1.59-2.547 3.127-3.044a2.76 2.76 0 0 1 1.917.473c3.095 1.443 6.691.21 10.011-.591a37.688 37.688 0 0 1 17.496-.02c3.822.91 7.604 2.498 10.34 5.32a24.808 24.808 0 0 1 4.836 8.31c2.933 7.383 4.871 15.37 3.903 23.254a32.914 32.914 0 0 1-7.757 17.44c-2.215 2.551-9.44 11.453-13.402 9.936-4.979-1.907 1.754-8.994-4.112-12.096Z" fill="#2f2e41"/><path transform="rotate(-20.877 298.392 1301.147)" opacity=".2" style="isolation:isolate" d="M735.344 592.546h1.592v82.629h-1.592z"/><path d="M146.496 461.458A75.342 75.342 0 1 0 16.3 533.028c.676.852 1.38 1.704 2.096 2.53.054.053.095.107.149.161a73.077 73.077 0 0 0 5.612 5.789c.515.473 1.056.96 1.596 1.42a53.72 53.72 0 0 0 3.179 2.637c.432.338.852.676 1.298 1a74.091 74.091 0 0 0 5.383 3.693l.08.04c.528.325 1.07.65 1.61.96a64.045 64.045 0 0 0 2.975 1.664l.636.325a71.676 71.676 0 0 0 4.476 2.136c.311.136.65.27.96.406.028.014.04.014.068.027a59.96 59.96 0 0 0 2.164.852 71.079 71.079 0 0 0 7.33 2.353 75.378 75.378 0 0 0 19.434 2.543c2.394 0 4.76-.108 7.1-.338a75.078 75.078 0 0 0 15.743-3.178c.013 0 .027-.014.04-.014a73.888 73.888 0 0 0 9.454-3.746c.013-.014.04-.014.054-.027.69-.325 1.352-.676 2.029-1.014l.324-.163c.54-.284 1.082-.568 1.623-.865a70.17 70.17 0 0 0 3.99-2.367 24.13 24.13 0 0 0 1.082-.69c.513-.338 1.027-.69 1.528-1.055a66.45 66.45 0 0 0 1.974-1.42c.203-.148.42-.297.622-.46a75.315 75.315 0 0 0 25.588-84.769Z" fill="#fff"/><path d="M380.925 655.278a125.278 125.278 0 0 0-19.99-8.412l-.878-9.724-35.65-3.84-4.53 12.428-12.794 4.801a6.227 6.227 0 0 0-1.299.676h-.013a6.34 6.34 0 0 0-2.705 4.22 6.48 6.48 0 0 0 .095 2.542l.676 2.773a64.054 64.054 0 0 0 2.975 1.663l.636.325a71.676 71.676 0 0 0 4.476 2.137c.311.135.65.27.96.405.028.014.04.014.068.027.717.298 1.434.582 2.164.852a71.079 71.079 0 0 0 7.33 2.354 75.378 75.378 0 0 0 19.434 2.542c2.394 0 4.76-.108 7.1-.338a75.078 75.078 0 0 0 15.743-3.178c.013 0 .027-.014.04-.014a73.887 73.887 0 0 0 9.454-3.746c.013-.013.04-.013.054-.027.69-.325 1.352-.676 2.029-1.014l.324-.163c.54-.284 1.082-.568 1.623-.865a70.163 70.163 0 0 0 3.99-2.367c.364-.216.716-.446 1.082-.69.513-.338 1.027-.69 1.528-1.054a58.69 58.69 0 0 0-3.922-2.313Z" transform="translate(-266.534 -112.188)" fill="#e4e4e4" style="fill:#455458;fill-opacity:1"/><path d="m314.02 661.27-2.23-10.076h-5.83a1.395 1.395 0 0 0-.176.013h-.013a12.632 12.632 0 0 0-5.87 2.029 13 13 0 0 0-3.137 2.813 74.091 74.091 0 0 0 5.383 3.692l.08.04c.528.325 1.07.65 1.61.96a64.054 64.054 0 0 0 2.975 1.664l.636.325a71.676 71.676 0 0 0 4.476 2.137c.311.135.65.27.96.405.028.014.04.014.068.027.717.298 1.434.582 2.164.852Z" transform="translate(-266.534 -112.188)" fill="#e4e4e4" style="fill:#455458;fill-opacity:1"/><circle cx="74.299" cy="489.291" r="25.675" fill="#fff"/><path d="M340.796 628.166a26.68 26.68 0 1 1 12.832-50.094 26.692 26.692 0 0 1-12.832 50.094Zm.079-51.358a24.668 24.668 0 1 0 11.794 3.02 24.697 24.697 0 0 0-11.794-3.02Z" transform="translate(-266.534 -112.188)" fill="#e4e4e4" style="fill:#455458;fill-opacity:1"/><path d="M323.595 588.973c2.658 3.145 7.156 4.033 11.305 4.397 8.426.739 20.68-.46 28.914-2.361.588 5.696-1.014 11.838 2.34 16.524a76.714 76.714 0 0 0 2.727-17.39 16.646 16.646 0 0 0-.964-7.449c-1.025-2.316-3.26-4.281-5.835-4.302a14.626 14.626 0 0 1 6.524-2.79l-8.153-4.096 2.094-2.15-14.76-.903 4.275-2.715a92.696 92.696 0 0 0-19.42-.613c-3.008.221-6.152.645-8.59 2.387s-3.844 5.206-2.331 7.765a11.274 11.274 0 0 0-8.592 6.817 18.2 18.2 0 0 0-.653 8.749 62.013 62.013 0 0 0 3.252 13.755Z" transform="translate(-266.534 -112.188)" fill="#e4e4e4" style="fill:#455458;fill-opacity:1"/><path d="M413.03 573.646a75.342 75.342 0 1 0-130.196 71.57c.676.852 1.38 1.704 2.096 2.53.054.053.095.107.149.161a73.077 73.077 0 0 0 5.612 5.789c.515.473 1.056.96 1.596 1.42a53.72 53.72 0 0 0 3.179 2.637c.432.338.852.676 1.298 1a74.091 74.091 0 0 0 5.383 3.693l.08.04c.528.325 1.07.65 1.61.96a64.045 64.045 0 0 0 2.975 1.664l.636.325a71.676 71.676 0 0 0 4.476 2.136c.311.136.65.27.96.406.028.014.04.014.068.027a59.96 59.96 0 0 0 2.164.852 71.079 71.079 0 0 0 7.33 2.353 75.378 75.378 0 0 0 19.434 2.543c2.394 0 4.76-.108 7.1-.338a75.078 75.078 0 0 0 15.743-3.178c.013 0 .027-.014.04-.014a73.888 73.888 0 0 0 9.454-3.746c.013-.014.04-.014.054-.027.69-.325 1.352-.676 2.029-1.014l.324-.163c.54-.284 1.082-.568 1.623-.865a70.17 70.17 0 0 0 3.99-2.367 24.13 24.13 0 0 0 1.082-.69c.513-.338 1.027-.69 1.528-1.055a66.45 66.45 0 0 0 1.974-1.42c.203-.148.42-.297.622-.46a75.315 75.315 0 0 0 25.588-84.769Zm-28.075 81.483c-.447.352-.906.69-1.366 1.001-.447.338-.893.663-1.353.96-.392.284-.784.555-1.19.812l-.121.08c-.298.204-.595.393-.893.582q-1.684 1.055-3.408 2.029l-.365.203a85.34 85.34 0 0 1-1.542.825c-.068.04-.149.067-.216.108l-.082.04a52.34 52.34 0 0 1-1.974.974 66.337 66.337 0 0 1-7.885 3.192c-.352.122-.703.243-1.054.352a70.939 70.939 0 0 1-14.904 3.03 73.859 73.859 0 0 1-6.722.31 70.257 70.257 0 0 1-18.379-2.407 66.784 66.784 0 0 1-9.02-3.057c-.15-.067-.312-.121-.46-.189-.162-.068-.312-.122-.46-.19a7.35 7.35 0 0 1-.474-.216 63.785 63.785 0 0 1-3.76-1.798l-.594-.311a67.291 67.291 0 0 1-4.41-2.516 25.09 25.09 0 0 1-1.257-.811c-.108-.068-.203-.136-.311-.203a67.307 67.307 0 0 1-2.854-1.988c-.635-.474-1.27-.947-1.893-1.434a48.155 48.155 0 0 1-3.016-2.488c-.514-.433-1.014-.906-1.5-1.353a68.714 68.714 0 0 1-5.438-5.626 45.791 45.791 0 0 1-1.65-1.974 5.154 5.154 0 0 1-.338-.42 71.217 71.217 0 1 1 98.889 12.483Z" transform="translate(-266.534 -112.188)" fill="#e4e4e4" style="fill:#455458;fill-opacity:1"/><path d="M146.496 256.778A75.342 75.342 0 1 0 16.3 328.348c.676.851 1.38 1.703 2.096 2.528.054.055.095.109.149.163a73.077 73.077 0 0 0 5.612 5.788c.515.473 1.056.96 1.596 1.42a53.72 53.72 0 0 0 3.179 2.637c.432.338.852.676 1.298 1.001a74.091 74.091 0 0 0 5.383 3.692l.08.04c.528.325 1.07.65 1.61.96a64.045 64.045 0 0 0 2.975 1.664l.636.325a71.682 71.682 0 0 0 4.476 2.137c.311.135.65.27.96.406.028.013.04.013.068.027a59.96 59.96 0 0 0 2.164.852 71.079 71.079 0 0 0 7.33 2.353 75.378 75.378 0 0 0 19.434 2.542c2.394 0 4.76-.108 7.1-.338a75.078 75.078 0 0 0 15.743-3.178c.013 0 .027-.013.04-.013a73.888 73.888 0 0 0 9.454-3.747c.013-.013.04-.013.054-.027.69-.324 1.352-.676 2.029-1.014l.324-.162c.54-.284 1.082-.568 1.623-.866a70.17 70.17 0 0 0 3.99-2.367 24.13 24.13 0 0 0 1.082-.69c.513-.337 1.027-.69 1.528-1.054a66.45 66.45 0 0 0 1.974-1.42c.203-.149.42-.298.622-.46a75.315 75.315 0 0 0 25.588-84.77Z" fill="#fff"/><path d="m315.332 411.358 4.376 15.159 55.92-.987-.49-27.774c-.388-21.984-15.924-40.944-37.908-40.556s-35.962 18.973-35.574 40.957l3.194 28.622 9.117-.16Z" transform="translate(-266.534 -112.188)" fill="#e4e4e4" style="fill:#455458;fill-opacity:1"/><circle cx="73.195" cy="284.68" r="25.09" fill="#fff"/><path d="m389.67 435.995-.569 10.553a67.18 67.18 0 0 1-93.112 3.607 43.824 43.824 0 0 1-1.705-1.59c3.48-3.455 13.082-11.99 23.74-12.779l48.058-3.027s18.207-2.134 23.588 3.236Zm-22.475-56.745a9.731 9.731 0 0 0-1.728-5.369 15.088 15.088 0 0 0-.348-.464 9.777 9.777 0 0 0-7.84-3.746l-18.033.325-18.022.313a9.764 9.764 0 0 0-9.567 9.916l4.29 8.64 2.47 4.963.407-.232c15.598-8.767 21.976-8.883 42.619-.73l.417.162 1.636-4.187 3.71-9.498Z" transform="translate(-266.534 -112.188)" fill="#e4e4e4" style="fill:#455458;fill-opacity:1"/><path d="M395.363 443.094c-1.45 1.856-2.759 1.822-4.394 3.515-4.128 4.303-10.716 7.987-15.865 11.06l-1.125-20.155 15.69-1.52s3.514 1.87 5.694 7.1Z" transform="translate(-266.534 -112.188)" fill="#e4e4e4" style="fill:#455458;fill-opacity:1"/><path d="M413.03 368.966a75.342 75.342 0 1 0-130.196 71.57c.676.851 1.38 1.703 2.096 2.528.054.055.095.109.149.163a73.077 73.077 0 0 0 5.612 5.788c.515.473 1.056.96 1.596 1.42a53.72 53.72 0 0 0 3.179 2.637c.432.338.852.676 1.298 1.001a74.091 74.091 0 0 0 5.383 3.692l.08.04c.528.325 1.07.65 1.61.96a64.045 64.045 0 0 0 2.975 1.664l.636.325a71.682 71.682 0 0 0 4.476 2.137c.311.135.65.27.96.406.028.013.04.013.068.027a59.96 59.96 0 0 0 2.164.852 71.079 71.079 0 0 0 7.33 2.353 75.378 75.378 0 0 0 19.434 2.542c2.394 0 4.76-.108 7.1-.338a75.078 75.078 0 0 0 15.743-3.178c.013 0 .027-.013.04-.013a73.888 73.888 0 0 0 9.454-3.747c.013-.013.04-.013.054-.027.69-.324 1.352-.676 2.029-1.014l.324-.162c.54-.284 1.082-.568 1.623-.866a70.17 70.17 0 0 0 3.99-2.367 24.13 24.13 0 0 0 1.082-.69c.513-.337 1.027-.69 1.528-1.054a66.45 66.45 0 0 0 1.974-1.42c.203-.149.42-.298.622-.46a75.315 75.315 0 0 0 25.588-84.77Zm-28.075 81.483c-.447.351-.906.69-1.366 1-.447.339-.893.663-1.353.96-.392.285-.784.555-1.19.812l-.121.081c-.298.203-.595.392-.893.582q-1.684 1.055-3.408 2.028l-.365.203a85.34 85.34 0 0 1-1.542.825c-.068.04-.149.068-.216.108l-.082.041c-.649.338-1.312.663-1.974.974a66.337 66.337 0 0 1-7.885 3.191c-.352.122-.703.244-1.054.352a70.939 70.939 0 0 1-14.904 3.03 73.859 73.859 0 0 1-6.722.31 70.257 70.257 0 0 1-18.379-2.407 66.784 66.784 0 0 1-9.02-3.056c-.15-.068-.312-.122-.46-.19-.162-.067-.312-.121-.46-.189a7.35 7.35 0 0 1-.474-.216 63.785 63.785 0 0 1-3.76-1.799l-.594-.311a67.286 67.286 0 0 1-4.41-2.516 25.09 25.09 0 0 1-1.257-.811c-.108-.068-.203-.135-.311-.203a67.307 67.307 0 0 1-2.854-1.988c-.635-.473-1.27-.947-1.893-1.433a48.155 48.155 0 0 1-3.016-2.489c-.514-.433-1.014-.906-1.5-1.352a68.715 68.715 0 0 1-5.438-5.626 45.791 45.791 0 0 1-1.65-1.975 5.155 5.155 0 0 1-.338-.42 71.217 71.217 0 1 1 98.889 12.484Z" transform="translate(-266.534 -112.188)" fill="#e4e4e4" style="fill:#455458;fill-opacity:1"/><path d="M149.448 51.598a76.86 76.86 0 1 0-132.82 73.012c.69.869 1.408 1.738 2.139 2.58.055.055.096.11.151.165a74.69 74.69 0 0 0 5.726 5.905c.524.483 1.076.98 1.628 1.449a55.004 55.004 0 0 0 3.242 2.69 75.571 75.571 0 0 0 6.816 4.787l.082.042a78.372 78.372 0 0 0 4.678 2.676l.648.331a73.12 73.12 0 0 0 4.566 2.18c.318.138.663.276.98.414.028.014.042.014.07.028a74.66 74.66 0 0 0 9.685 3.27 76.891 76.891 0 0 0 19.825 2.593c2.442 0 4.856-.11 7.243-.345a76.582 76.582 0 0 0 16.06-3.242c.013 0 .027-.014.04-.014a75.338 75.338 0 0 0 9.644-3.821c.014-.014.042-.014.056-.028.703-.331 1.38-.69 2.069-1.035l.331-.165a71.77 71.77 0 0 0 5.725-3.297c.373-.221.732-.456 1.104-.704a72.354 72.354 0 0 0 3.573-2.525c.208-.152.428-.303.636-.469a76.836 76.836 0 0 0 26.103-86.477Z" fill="#fff"/><circle data-name="Ellipse 188" cx="102.227" cy="97.024" r="11.519" fill="#e4e4e4" style="fill:#455458;fill-opacity:1"/><path data-name="Path 969" d="M105.436 85.822a11.52 11.52 0 0 1 10.14 16.987 11.516 11.516 0 1 0-19.132-12.654 11.491 11.491 0 0 1 8.994-4.332Z" fill="#e4e4e4"/><circle data-name="Ellipse 189" cx="80.702" cy="63.162" r="33.837" fill="#e4e4e4" style="fill:#455458;fill-opacity:1"/><path data-name="Path 970" d="M320.679 154.356a33.832 33.832 0 0 1 46.894-3.549c-.276-.263-.552-.528-.837-.783a33.837 33.837 0 0 0-45.157 50.406l.194.172c.287.255.582.496.876.74a33.832 33.832 0 0 1-1.969-46.986Z" transform="translate(-266.534 -112.188)" fill="#e4e4e4" style="fill:#455458;fill-opacity:1"/><circle data-name="Ellipse 190" cx="80.415" cy="74.919" r="21.793" fill="#fff"/><path d="M385.947 243.889v7.312a71.776 71.776 0 0 1-5.726 3.298l-.331.165c-.69.345-1.366.704-2.07 1.035-.013.014-.042.014-.055.027a75.336 75.336 0 0 1-9.644 3.822c-.014 0-.027.014-.041.014a76.582 76.582 0 0 1-16.06 3.242 74.007 74.007 0 0 1-7.243.345 76.891 76.891 0 0 1-19.825-2.594 74.66 74.66 0 0 1-9.685-3.27c-.028-.013-.042-.013-.07-.027-.317-.138-.662-.276-.979-.414a73.112 73.112 0 0 1-4.567-2.18l-.648-.331a78.396 78.396 0 0 1-4.677-2.677l-.083-.041a75.573 75.573 0 0 1-6.815-4.787 55.02 55.02 0 0 1-3.242-2.69 55.286 55.286 0 0 1-1.628-1.45 74.69 74.69 0 0 1-5.726-5.904 27.912 27.912 0 0 1 1.049-4.236l.013-.014a6.191 6.191 0 0 1 .29-.69 5.5 5.5 0 0 1 .262-.579c2.47-4.622 6.94-5.767 12.486-6.015 3.132-.138 6.595.014 10.251-.028a72.43 72.43 0 0 0 5.932-.262c12.624-1.145 10.334-8.595 10.9-12.61.565-3.89 4.07-.524 4.304-.303l.014.013a44.524 44.524 0 0 0 22.902 4.015 44.548 44.548 0 0 1 4.056-.303c3.56-.042 2.787.98 1.56 1.82a15.429 15.429 0 0 1-1.863 1.05s-.566 3.449-1.145 8.608c-.552 4.94 16.845 6.65 20.253 7.726h.014a12.442 12.442 0 0 1 7.837 8.913Z" transform="translate(-266.534 -112.188)" fill="#e4e4e4" style="fill:#455458;fill-opacity:1"/><path data-name="Path 975" d="M328.31 159.866v21.798h5.046l6.423-6.881-.86 6.881h22.31l-1.38-6.881 2.759 6.881h3.557v-21.798Z" transform="translate(-266.534 -112.188)" fill="#e4e4e4" style="fill:#455458;fill-opacity:1"/><ellipse data-name="Ellipse 191" cx="58.335" cy="70.332" rx="1.72" ry="3.154" fill="#e4e4e4" style="fill:#455458;fill-opacity:1"/><ellipse data-name="Ellipse 192" cx="102.496" cy="70.332" rx="1.72" ry="3.154" fill="#e4e4e4" style="fill:#455458;fill-opacity:1"/><path d="M415.982 163.786a76.86 76.86 0 1 0-132.82 73.012c.69.869 1.408 1.738 2.139 2.58.055.055.096.11.151.165a74.69 74.69 0 0 0 5.726 5.905c.524.483 1.076.98 1.628 1.449a55.004 55.004 0 0 0 3.242 2.69 75.571 75.571 0 0 0 6.816 4.787l.082.042a78.372 78.372 0 0 0 4.678 2.676l.648.331a73.12 73.12 0 0 0 4.566 2.18c.318.138.663.276.98.414.028.014.042.014.07.028a74.66 74.66 0 0 0 9.685 3.27 76.891 76.891 0 0 0 19.825 2.593c2.442 0 4.856-.11 7.243-.345a76.582 76.582 0 0 0 16.06-3.242c.013 0 .027-.014.04-.014a75.338 75.338 0 0 0 9.644-3.821c.014-.014.042-.014.056-.028.703-.331 1.38-.69 2.069-1.035l.331-.165a71.77 71.77 0 0 0 5.725-3.297c.373-.221.732-.456 1.104-.704a72.354 72.354 0 0 0 3.573-2.525c.208-.152.428-.303.636-.469a76.836 76.836 0 0 0 26.103-86.477ZM387.34 246.91c-.456.36-.925.704-1.393 1.021-.456.345-.911.676-1.38.98-.4.29-.8.566-1.215.828-.345.234-.69.455-1.034.676q-1.717 1.076-3.477 2.07l-.373.206c-.524.29-1.048.566-1.572.842-.07.041-.152.069-.221.11l-.083.041c-.662.345-1.338.676-2.014.994a67.641 67.641 0 0 1-8.044 3.256c-.358.124-.717.248-1.075.359a72.372 72.372 0 0 1-15.204 3.09 75.348 75.348 0 0 1-6.857.317 71.675 71.675 0 0 1-18.75-2.455 68.142 68.142 0 0 1-9.202-3.118c-.317-.125-.634-.263-.938-.387a7.688 7.688 0 0 1-.483-.22 65.197 65.197 0 0 1-3.835-1.836l-.607-.317a68.856 68.856 0 0 1-4.498-2.566 39.86 39.86 0 0 1-1.6-1.035 74.127 74.127 0 0 1-4.843-3.49 49.317 49.317 0 0 1-3.077-2.539c-.524-.441-1.035-.924-1.531-1.38a70.198 70.198 0 0 1-5.546-5.739 46.655 46.655 0 0 1-1.684-2.014 5.242 5.242 0 0 1-.345-.428 72.651 72.651 0 1 1 100.88 12.734Z" transform="translate(-266.534 -112.188)" fill="#e4e4e4" style="fill:#455458;fill-opacity:1"/><path d="m437.37 284.61-54.108-1.226c-5.413-20.966-2.976-40.928 1.343-59.324l54.109 1.225a118.472 118.472 0 0 0-1.343 59.324Z" transform="translate(-266.534 -112.188)" fill="#6c63ff" style="fill:#d7fe6a;fill-opacity:1"/><path fill="#fff" style="fill:#455458;fill-opacity:1" d="m127.341 124.983.03-2.059 28.032 1.002-.029 2.059-28.033-1.002zm-.118 8.235.03-2.059 28.032 1.003-.03 2.059-28.032-1.003zm-.118 8.236.03-2.059 28.032 1.002-.03 2.059-28.032-1.002zm-.118 8.236.029-2.059 28.033 1.002-.03 2.059-28.032-1.002zm-.118 8.235.029-2.059 28.033 1.003-.03 2.058-28.032-1.002z"/><path d="m437.37 479.61-54.108-1.226c-5.413-20.966-2.976-40.928 1.343-59.324l54.109 1.225a118.472 118.472 0 0 0-1.343 59.324Z" transform="translate(-266.534 -112.188)" fill="#6c63ff" style="fill:#d7fe6a;fill-opacity:1"/><path fill="#fff" style="fill:#455458;fill-opacity:1" d="m127.341 319.983.03-2.059 28.032 1.002-.029 2.059-28.033-1.002zm-.118 8.235.03-2.059 28.032 1.003-.03 2.059-28.032-1.003zm-.118 8.236.03-2.059 28.032 1.002-.03 2.059-28.032-1.002zm-.118 8.236.029-2.059 28.033 1.002-.03 2.059-28.032-1.002zm-.118 8.235.029-2.059 28.033 1.003-.03 2.058-28.032-1.002z"/><path d="m437.37 674.61-54.108-1.226c-5.413-20.966-2.976-40.928 1.343-59.324l54.109 1.225a118.472 118.472 0 0 0-1.343 59.324Z" transform="translate(-266.534 -112.188)" fill="#6c63ff" style="fill:#d7fe6a;fill-opacity:1"/><path fill="#fff" style="fill:#455458;fill-opacity:1" d="m127.341 514.983.03-2.059 28.032 1.002-.029 2.059-28.033-1.002zm-.118 8.235.03-2.059 28.032 1.003-.03 2.059-28.032-1.003zm-.118 8.236.03-2.059 28.032 1.002-.03 2.059-28.032-1.002zm-.118 8.236.029-2.059 28.033 1.002-.03 2.059-28.032-1.002zm-.118 8.235.029-2.059 28.033 1.003-.03 2.058-28.032-1.002z"/><path d="M459.541 449.392a10.056 10.056 0 0 1 12.158-9.484l18.535-30.552 7.952 16.781-18.82 26.44a10.11 10.11 0 0 1-19.825-3.186Z" fill="#a0616a"/><path d="M525.92 288.148s26.29 3.01 16.502 51.299-47.833 104.237-47.833 104.237l-25.736-12.308 33.569-66.02-7.833-41.401s-4.476-39.164 31.331-35.807Z" fill="#575a89"/></svg>