<svg width="500" viewBox="0 0 375 375" height="500" version="1.0" xmlns="http://www.w3.org/2000/svg"><defs><clipPath id="a"><path d="M194 0h169.469v375H194Zm0 0"/></clipPath><clipPath id="b"><path d="M11.719 0H181v375H11.719Zm0 0"/></clipPath></defs><path fill="#f2681b" d="M241.57 314.36c0 5.265-4.27 9.53-9.53 9.53-5.267 0-9.536-4.265-9.536-9.53 0-5.262 4.27-9.528 9.535-9.528 5.262 0 9.531 4.266 9.531 9.527"/><path fill="#f9a97c" d="M299.758 282.375c0 5.262-4.27 9.527-9.535 9.527-5.266 0-9.532-4.265-9.532-9.527 0-5.266 4.266-9.527 9.532-9.527 5.265 0 9.535 4.261 9.535 9.527"/><path fill="#f2681b" d="M35.836 242.18c-4.871-4.68-7.55-10.953-7.55-17.668 0-6.192 2.339-12.114 6.593-16.68l.5-.539a7.185 7.185 0 0 0 1.16-8.113l-.328-.653c-1.738-3.468-2.625-7.156-2.625-10.976 0-6.188 2.34-12.11 6.594-16.68l.61-.648a7.169 7.169 0 0 0 .452-9.23l-.535-.712c-3.672-4.824-5.406-10.652-4.95-16.71 1.11-14.708 16.7-26.704 31.024-20.926 6.973 2.812 12.32 8.964 14.11 16.273.785 3.18 3.554 5.469 6.832 5.324l.78-.031c4.243-.18 7.184-4.207 6.212-8.34-3.922-16.656-18.895-29.094-36.742-29.094-1.293 0-2.567.086-3.832.215a20.357 20.357 0 0 1-.098-1.89c0-8.004 4.812-15.122 12.258-18.118l.187-.086a8.238 8.238 0 0 0 4.946-8.156l-.012-.156c-.031-.422-.067-.84-.067-1.27 0-9.347 6.66-17.418 15.84-19.183a8.235 8.235 0 0 0 6.68-8.223c0-.183-.012-.363-.023-.562.097-10.692 8.835-19.368 19.558-19.368 3.047 0 5.844.594 8.29 2.497 3.187 2.48 5.777 6 7.148 9.8a22.015 22.015 0 0 1 1.25 5.836 6.555 6.555 0 0 0 7.316 6.067l2.2-.246a6.356 6.356 0 0 0 5.636-6.782c-.762-10.78-6.063-20.101-13.879-26.308 3.629-2.782 8.066-4.348 12.754-4.348 10.824 0 19.941 8.274 21.21 19.234l.161 1.075v301.11l-.117 1.17c-1.145 11.126-10.281 19.52-21.254 19.52-5.316 0-10.418-2.015-14.36-5.675l-.312-.293a7.179 7.179 0 0 0-4.992-1.918l-.426.008-.531.023c-10.223-.082-19.242-6.559-22.77-15.895 11.477-6.128 19.301-18.21 19.301-32.093 0-.266-.004-.532-.012-.797-.09-3.957-3.882-6.785-7.722-5.817l-1.008.254c-2.914.727-4.91 3.364-4.918 6.364-.027 10.964-7.785 20.09-18.082 22.238-.914.105-1.809.18-2.684.18-13.53 0-24.543-11.004-24.543-24.532 0-.78.043-1.601.125-2.437l.098-.992c.36-3.649-2.074-7.036-5.64-7.723-5.583-1.086-11.036-3.105-14.958-7.21-8.433-8.821-9.027-20.84-3.523-29.9l.441-.726a7.173 7.173 0 0 0-1.156-8.894l-.617-.59"/><g clip-path="url(#a)"><path fill="#051d40" d="m339.352 242.18-.614.59a7.168 7.168 0 0 0-1.156 8.894l.441.727c5.5 9.058 4.907 21.078-3.527 29.898-3.922 4.106-9.375 6.125-14.957 7.211-3.566.688-6 4.074-5.64 7.723l.097.992c.082.836.125 1.656.125 2.437 0 13.528-11.012 24.532-24.543 24.532-.875 0-1.77-.075-2.683-.18-10.297-2.149-18.055-11.274-18.082-22.238-.004-3-2.004-5.637-4.918-6.364l-1.008-.254c-3.84-.968-7.633 1.86-7.723 5.817-.008.265-.012.531-.012.797 0 13.883 7.828 25.965 19.301 32.093-3.527 9.336-12.547 15.813-22.765 15.895l-.536-.023-.425-.008a7.206 7.206 0 0 0-4.993 1.914l-.312.297c-3.942 3.66-9.043 5.675-14.36 5.675-10.972 0-20.109-8.394-21.25-19.52l-.117-1.17V36.804l.157-1.075c1.27-10.96 10.386-19.234 21.21-19.234 4.692 0 9.125 1.567 12.754 4.348C236 27.05 230.703 36.37 229.937 47.152a6.356 6.356 0 0 0 5.637 6.782l2.2.246a6.555 6.555 0 0 0 7.316-6.067 21.86 21.86 0 0 1 1.258-5.836c1.363-3.8 3.953-7.32 7.14-9.8 2.446-1.903 5.242-2.497 8.29-2.497 10.722 0 19.46 8.676 19.558 19.368-.012.199-.02.379-.024.562a8.235 8.235 0 0 0 6.68 8.223c9.18 1.765 15.844 9.836 15.844 19.183 0 .43-.04.848-.07 1.27l-.012.156a8.238 8.238 0 0 0 4.945 8.156l.188.086c7.445 2.996 12.258 10.114 12.258 18.118 0 .632-.04 1.261-.098 1.89a37.663 37.663 0 0 0-3.832-.215c-17.848 0-32.82 12.438-36.742 29.094-.973 4.133 1.968 8.16 6.21 8.34l.782.031c3.277.145 6.05-2.144 6.832-5.324 1.789-7.309 7.137-13.461 14.11-16.273 14.323-5.778 29.913 6.218 31.023 20.925.457 6.059-1.278 11.887-4.95 16.711l-.535.711a7.173 7.173 0 0 0 .453 9.23l.61.65c4.254 4.57 6.594 10.491 6.594 16.679 0 3.82-.887 7.508-2.625 10.976l-.329.653a7.18 7.18 0 0 0 1.164 8.113l.497.539c4.253 4.566 6.593 10.488 6.593 16.68 0 6.715-2.68 12.988-7.55 17.668Zm24.03-17.668c0-8.532-2.648-16.75-7.542-23.645a40.453 40.453 0 0 0 2.238-13.316c0-8.18-2.433-16.07-6.95-22.781 3.188-5.918 4.852-12.48 4.852-19.297 0-14.168-7.207-27.047-18.847-34.496a35.63 35.63 0 0 0 .488-5.875c0-12.825-6.691-24.403-17.437-30.844-1.172-13.742-10.149-25.563-22.832-30.5-2.77-17.125-17.668-30.242-35.575-30.242-.625 0-1.246.015-1.87.046C252.761 5.008 242.32.027 231.062.027c-16.782 0-31.243 11.118-36.102 26.797v321.399c4.824 15.722 19.219 26.851 36.101 26.851 8.395 0 16.465-2.8 23.063-7.941 15.762-1.02 29.512-11.106 35.371-25.48h.082c21.55 0 39.281-16.704 40.899-37.84 16.351-5.583 27.601-20.891 27.601-38.723a40.778 40.778 0 0 0-3.14-15.676c5.48-7.117 8.445-15.766 8.445-24.902" style="fill:#000;fill-opacity:1"/></g><g clip-path="url(#b)"><path fill="#051d40" d="M28.285 224.512c0-6.192 2.34-12.114 6.594-16.68l.5-.539a7.185 7.185 0 0 0 1.16-8.113l-.328-.653c-1.738-3.468-2.625-7.156-2.625-10.976 0-6.188 2.34-12.11 6.594-16.68l.61-.648a7.169 7.169 0 0 0 .452-9.23l-.535-.712c-3.672-4.824-5.406-10.652-4.95-16.71 1.11-14.708 16.7-26.704 31.024-20.926 6.973 2.812 12.32 8.964 14.11 16.273.785 3.18 3.558 5.469 6.832 5.324l.78-.031c4.243-.18 7.184-4.207 6.212-8.34-3.922-16.656-18.895-29.094-36.742-29.094-1.293 0-2.567.086-3.832.215a20.357 20.357 0 0 1-.098-1.89c0-8.004 4.812-15.122 12.258-18.118l.187-.086a8.238 8.238 0 0 0 4.946-8.156l-.012-.156c-.031-.422-.067-.84-.067-1.27 0-9.347 6.66-17.418 15.84-19.183a8.235 8.235 0 0 0 6.68-8.223c0-.183-.012-.363-.023-.562.097-10.692 8.835-19.368 19.558-19.368 3.047 0 5.844.594 8.29 2.497 3.187 2.48 5.777 6 7.148 9.8a22.17 22.17 0 0 1 1.25 5.836 6.555 6.555 0 0 0 7.316 6.067l2.2-.246a6.356 6.356 0 0 0 5.636-6.782c-.762-10.78-6.063-20.101-13.879-26.308 3.629-2.782 8.066-4.348 12.754-4.348 10.824 0 19.941 8.274 21.21 19.234l.161 1.075v301.11l-.117 1.17c-1.145 11.126-10.281 19.52-21.254 19.52-5.316 0-10.418-2.015-14.36-5.675l-.312-.297a7.193 7.193 0 0 0-4.992-1.914l-.426.008-.531.023c-10.223-.082-19.242-6.559-22.77-15.895 11.477-6.128 19.301-18.21 19.301-32.093 0-.266-.004-.532-.012-.797-.09-3.957-3.882-6.785-7.722-5.817l-1.008.254c-2.914.727-4.91 3.364-4.918 6.364-.027 10.964-7.785 20.09-18.082 22.238-.914.105-1.809.18-2.684.18-13.53 0-24.543-11.004-24.543-24.532 0-.78.043-1.601.125-2.437l.098-.992c.36-3.649-2.074-7.036-5.64-7.723-5.583-1.086-11.036-3.105-14.958-7.21-8.433-8.821-9.027-20.84-3.523-29.9l.441-.726a7.173 7.173 0 0 0-1.156-8.894l-.617-.59c-4.871-4.68-7.55-10.953-7.55-17.668Zm-8.035 24.902a40.85 40.85 0 0 0-3.14 15.676c0 17.832 11.253 33.14 27.6 38.723 1.618 21.136 19.349 37.84 40.9 37.84h.081c5.86 14.374 19.61 24.46 35.371 25.48 6.598 5.14 14.668 7.941 23.063 7.941 16.883 0 31.277-11.129 36.102-26.851V26.824C175.367 11.144 160.91.027 144.125.027c-11.258 0-21.7 4.98-28.844 13.536a37.385 37.385 0 0 0-1.87-.047c-17.907 0-32.806 13.117-35.575 30.242-12.684 4.937-21.66 16.758-22.832 30.5-10.746 6.441-17.438 18.02-17.438 30.844 0 1.976.164 3.933.489 5.875-11.64 7.449-18.848 20.328-18.848 34.496 0 6.816 1.664 13.379 4.852 19.297a40.749 40.749 0 0 0-6.95 22.78c0 4.579.754 9.036 2.239 13.317a40.755 40.755 0 0 0-7.543 23.645c0 9.136 2.965 17.785 8.445 24.902" style="fill:#000;fill-opacity:1"/></g><path fill="#f2681b" d="M242.707 101.238c0 5.89-4.777 10.664-10.668 10.664-5.894 0-10.668-4.773-10.668-10.664 0-5.89 4.774-10.66 10.668-10.66 5.89 0 10.668 4.77 10.668 10.66"/><path fill="#f9a97c" d="M294.246 98.191c0 5.891-4.773 10.664-10.668 10.664-5.887 0-10.668-4.773-10.668-10.664 0-5.89 4.781-10.66 10.668-10.66 5.895 0 10.668 4.77 10.668 10.66m-35.031 58.387c0 10.516-8.527 19.043-19.047 19.043-10.523 0-19.05-8.527-19.05-19.043 0-10.512 8.527-19.039 19.05-19.039 10.52 0 19.047 8.527 19.047 19.04m-3.047 103.069c0 10.512-8.527 19.04-19.05 19.04-10.52 0-19.048-8.528-19.048-19.04 0-10.515 8.528-19.043 19.047-19.043 10.524 0 19.051 8.528 19.051 19.043"/><path fill="#f2681b" d="M302.629 221.566c0 10.516-8.527 19.04-19.05 19.04-10.52 0-19.048-8.524-19.048-19.04 0-10.515 8.528-19.039 19.047-19.039 10.524 0 19.05 8.524 19.05 19.04m6.662-55.457c0 5.261-4.267 9.527-9.532 9.527-5.266 0-9.535-4.266-9.535-9.528 0-5.265 4.27-9.53 9.535-9.53a9.53 9.53 0 0 1 9.531 9.53M268.75 71.285c0 5.262-4.27 9.528-9.535 9.528-5.266 0-9.535-4.266-9.535-9.528 0-5.265 4.27-9.527 9.535-9.527 5.265 0 9.535 4.262 9.535 9.527m-12.566 128.449c0 5.266-4.266 9.528-9.532 9.528-5.265 0-9.535-4.262-9.535-9.528 0-5.261 4.27-9.527 9.535-9.527 5.266 0 9.532 4.266 9.532 9.527"/><path fill="#f9a97c" d="M333.516 231.094c0 5.265-4.27 9.531-9.532 9.531-5.265 0-9.535-4.266-9.535-9.531 0-5.262 4.27-9.528 9.535-9.528 5.262 0 9.532 4.266 9.532 9.528"/></svg>