<?xml version="1.0" encoding="UTF-8"?>
<!DOCTYPE svg PUBLIC "-//W3C//DTD SVG 1.1//EN" "http://www.w3.org/Graphics/SVG/1.1/DTD/svg11.dtd">
<svg xmlns="http://www.w3.org/2000/svg" version="1.1" width="100px" height="100px" style="shape-rendering:geometricPrecision; text-rendering:geometricPrecision; image-rendering:optimizeQuality; fill-rule:evenodd; clip-rule:evenodd" xmlns:xlink="http://www.w3.org/1999/xlink">
<g><path style="opacity:1" fill="#0f9868" d="M 47.5,-0.5 C 48.8333,-0.5 50.1667,-0.5 51.5,-0.5C 58.8333,4.16667 66.1667,8.83333 73.5,13.5C 65.4624,19.179 57.4624,24.8457 49.5,30.5C 49.1667,30.5 48.8333,30.5 48.5,30.5C 40.7119,24.4319 32.3786,19.0985 23.5,14.5C 31.5,9.5 39.5,4.5 47.5,-0.5 Z"/></g>
<g><path style="opacity:0.999" fill="#173899" d="M 73.5,13.5 C 82.1495,18.4723 90.8162,23.4723 99.5,28.5C 99.5,29.1667 99.5,29.8333 99.5,30.5C 90.3389,35.2464 81.3389,40.2464 72.5,45.5C 65.0407,40.2646 57.374,35.2646 49.5,30.5C 57.4624,24.8457 65.4624,19.179 73.5,13.5 Z"/></g>
<g><path style="opacity:1" fill="#9b3936" d="M 23.5,14.5 C 32.3786,19.0985 40.7119,24.4319 48.5,30.5C 41.6745,35.137 34.6745,39.637 27.5,44C 26.7476,44.6708 26.4142,45.5041 26.5,46.5C 17.6373,40.9033 8.63735,35.57 -0.5,30.5C -0.5,29.8333 -0.5,29.1667 -0.5,28.5C 7.53224,23.8197 15.5322,19.153 23.5,14.5 Z"/></g>
<g><path style="opacity:0.995" fill="#fdcb68" d="M 48.5,30.5 C 48.8333,30.5 49.1667,30.5 49.5,30.5C 57.374,35.2646 65.0407,40.2646 72.5,45.5C 65.0256,50.4075 57.3589,55.0742 49.5,59.5C 42.0055,54.9179 34.3388,50.5845 26.5,46.5C 26.4142,45.5041 26.7476,44.6708 27.5,44C 34.6745,39.637 41.6745,35.137 48.5,30.5 Z"/></g>
<g><path style="opacity:0.999" fill="#409ada" d="M 99.5,48.5 C 99.5,49.1667 99.5,49.8333 99.5,50.5C 83.1507,60.676 66.484,70.3426 49.5,79.5C 32.4885,70.3309 15.8218,60.6643 -0.5,50.5C -0.5,49.8333 -0.5,49.1667 -0.5,48.5C 3.93863,46.446 8.27197,44.1127 12.5,41.5C 25.2042,48.8493 37.8708,56.1827 50.5,63.5C 62.2731,56.9036 73.9397,50.0703 85.5,43C 87.1667,42.3333 88.8333,42.3333 90.5,43C 93.1943,45.3465 96.1943,47.1798 99.5,48.5 Z"/></g>
<g><path style="opacity:1" fill="#e75343" d="M 99.5,68.5 C 99.5,69.1667 99.5,69.8333 99.5,70.5C 83.4642,80.1812 67.4642,89.8478 51.5,99.5C 50.1667,99.5 48.8333,99.5 47.5,99.5C 31.5358,89.8478 15.5358,80.1812 -0.5,70.5C -0.5,69.8333 -0.5,69.1667 -0.5,68.5C 3.93863,66.446 8.27197,64.1127 12.5,61.5C 24.9985,68.5815 37.3319,75.9148 49.5,83.5C 62.0983,76.286 74.5983,68.9527 87,61.5C 90.9355,64.2185 95.1022,66.5518 99.5,68.5 Z"/></g>
</svg>
