<?xml version="1.0" encoding="UTF-8" standalone="no"?>
<svg
   width="800"
   height="600"
   viewBox="0 0 800 600"
   xml:space="preserve"
   version="1.1"
   id="svg28"
   sodipodi:docname="logo.svg"
   inkscape:version="1.2.2 (b0a8486541, 2022-12-01)"
   xmlns:inkscape="http://www.inkscape.org/namespaces/inkscape"
   xmlns:sodipodi="http://sodipodi.sourceforge.net/DTD/sodipodi-0.dtd"
   xmlns="http://www.w3.org/2000/svg"
   xmlns:svg="http://www.w3.org/2000/svg"><defs
     id="defs32" /><sodipodi:namedview
     id="namedview30"
     pagecolor="#ffffff"
     bordercolor="#000000"
     borderopacity="0.25"
     inkscape:showpageshadow="2"
     inkscape:pageopacity="0.0"
     inkscape:pagecheckerboard="0"
     inkscape:deskcolor="#d1d1d1"
     showgrid="true"
     inkscape:zoom="0.97333333"
     inkscape:cx="290.23973"
     inkscape:cy="296.91781"
     inkscape:window-width="1366"
     inkscape:window-height="736"
     inkscape:window-x="0"
     inkscape:window-y="32"
     inkscape:window-maximized="1"
     inkscape:current-layer="svg28"><inkscape:grid
       type="xygrid"
       id="grid869" /></sodipodi:namedview><g
     style="clip-rule:evenodd;fill-rule:evenodd;stroke-width:0.168777;image-rendering:optimizeQuality;shape-rendering:geometricPrecision;text-rendering:geometricPrecision"
     id="g26"
     transform="matrix(1.0943953,0,0,1.2031344,-36.888028,-65.723857)"><g
       style="stroke-width:0.168777"
       id="g4"><path
         style="opacity:1;stroke-width:0.0326865"
         fill="#0f9868"
         d="M 49.673,-0.962 49.654,-1.001 C 56.988,3.666 66.167,8.833 73.5,13.5 65.462,19.179 49.266,30.306 48.929,31.033 l 0.339,-0.593 c 0,0 -0.011,0.07 -23.214,-16.537 z"
         transform="matrix(5.57919,0,0,4.77878,123.035,64.473)"
         id="path2" /></g><g
       style="stroke-width:0.168777"
       id="g8"><path
         style="opacity:0.999;stroke-width:0.0326865"
         fill="#173899"
         d="m 73.5,13.5 c 8.65,4.972 17.316,9.972 26,15 v 2 C 99.523,30.516 72.502,46.37 72.478,46.402 65.018,41.167 57.311,35.03 49.438,30.265 57.4,24.611 65.461,19.18 73.5,13.5 Z"
         transform="matrix(5.57919,0,0,4.77878,123.035,64.473)"
         id="path6" /></g><g
       style="stroke-width:0.168777"
       id="g12"><path
         style="opacity:1;stroke-width:0.0326865"
         fill="#9b3936"
         d="m 26.094,13.866 c 23.395,16.76 23.341,16.54 23.341,16.54 C 47.43,35.16 49.25,30.601 27.5,44 c -0.752,0.67 -1.086,1.504 -1,2.5 -0.018,0.003 -26.956,-16.027 -27,-16 v -2 C 7.532,23.82 18.126,18.52 26.094,13.866 Z"
         transform="matrix(5.57919,0,0,4.77878,123.035,64.473)"
         id="path10" /></g><g
       style="stroke-width:0.168777"
       id="g16"><path
         style="opacity:0.995;stroke-width:0.0326865"
         fill="#fdcb68"
         d="m 49.477,30.096 -0.02,0.05 C 57.33,34.911 65.08,41.184 72.54,46.42 L 49.5,59.5 c -0.02,0.028 -23,-13 -23,-13 -0.086,-0.996 0.248,-1.83 1,-2.5 7.175,-4.363 2.758,-1.434 21.977,-13.904 z"
         transform="matrix(5.57919,0,0,4.77878,123.035,64.473)"
         id="path14" /></g><g
       style="stroke-width:0.168777"
       id="g20"><path
         style="opacity:0.999;stroke-width:0.0326865"
         fill="#409ada"
         d="m 99.5,48.5 v 2 c 0.035,-0.012 -50,29 -50,29 0.049,0.018 -50,-29 -50,-29 v -2 c 4.439,-2.054 7.759,-3.558 11.987,-6.17 0,0 38.174,22.826 38.153,22.828 0,0 39.96,-23.183 39.997,-22.953 0,0 -0.121,0.02 -0.03,-0.003 0,0 0.068,-0.119 9.893,6.298 z"
         transform="matrix(5.57919,0,0,4.77878,123.035,64.473)"
         id="path18" /></g><g
       style="stroke-width:0.168777"
       id="g24"><path
         style="opacity:1;stroke-width:0.0326865"
         fill="#e75343"
         d="m 99.5,68.5 v 2 C 83.464,80.181 65.536,91.584 49.571,101.237 l -0.185,-0.025 C 33.42,91.56 15.536,80.182 -0.5,70.5 v -2 C 3.939,66.446 7.743,64.437 11.97,61.824 49.514,83.544 49.488,83.625 49.5,83.5 62.098,76.286 74.92,69.255 87.321,61.802 91.257,64.52 95.102,66.552 99.5,68.5 Z"
         transform="matrix(5.57919,0,0,4.77878,123.035,64.473)"
         id="path22" /></g></g></svg>
