<svg width="800" height="600" viewBox="0 0 800 600" xml:space="preserve" xmlns="http://www.w3.org/2000/svg"><g style="clip-rule:evenodd;fill-rule:evenodd;stroke-width:.168777;image-rendering:optimizeQuality;shape-rendering:geometricPrecision;text-rendering:geometricPrecision"><g style="stroke-width:.168777"><path style="opacity:1;stroke-width:.0326865" fill="#0f9868" d="m49.673-.962-.019-.039C56.988 3.666 66.167 8.833 73.5 13.5c-8.038 5.679-24.234 16.806-24.571 17.533l.339-.593s-.011.07-23.214-16.537z" transform="matrix(6.10587 0 0 5.7495 97.762 11.845)"/></g><g style="stroke-width:.168777"><path style="opacity:.999;stroke-width:.0326865" fill="#173899" d="M73.5 13.5c8.65 4.972 17.316 9.972 26 15v2c.023.016-26.998 15.87-27.022 15.902-7.46-5.235-15.167-11.372-23.04-16.137C57.4 24.611 65.461 19.18 73.5 13.5Z" transform="matrix(6.10587 0 0 5.7495 97.762 11.845)"/></g><g style="stroke-width:.168777"><path style="opacity:1;stroke-width:.0326865" fill="#9b3936" d="M26.094 13.866c23.395 16.76 23.341 16.54 23.341 16.54C47.43 35.16 49.25 30.601 27.5 44c-.752.67-1.086 1.504-1 2.5-.018.003-26.956-16.027-27-16v-2c8.032-4.68 18.626-9.98 26.594-14.634Z" transform="matrix(6.10587 0 0 5.7495 97.762 11.845)"/></g><g style="stroke-width:.168777"><path style="opacity:.995;stroke-width:.0326865" fill="#fdcb68" d="m49.477 30.096-.02.05C57.33 34.911 65.08 41.184 72.54 46.42L49.5 59.5c-.02.028-23-13-23-13-.086-.996.248-1.83 1-2.5 7.175-4.363 2.758-1.434 21.977-13.904z" transform="matrix(6.10587 0 0 5.7495 97.762 11.845)"/></g><g style="stroke-width:.168777"><path style="opacity:.999;stroke-width:.0326865" fill="#409ada" d="M99.5 48.5v2c.035-.012-50 29-50 29 .049.018-50-29-50-29v-2s10.26-6.294 10.315-6.306c0 0 39.846 22.962 39.825 22.964 0 0 39.96-23.183 39.997-22.953 0 0-.121.02-.03-.003 0 0 .068-.119 9.893 6.298z" transform="matrix(6.10587 0 0 5.7495 97.762 11.845)"/></g><g style="stroke-width:.168777"><path style="opacity:1;stroke-width:.0326865" fill="#e75343" d="M99.5 68.5v2c-16.036 9.681-33.964 21.084-49.929 30.737l-.185-.025C33.42 91.56 15.536 80.182-.5 70.5v-2c4.439-2.054 8.243-4.063 12.47-6.676C49.514 83.544 49.488 83.625 49.5 83.5c12.598-7.214 25.42-14.245 37.821-21.698 3.936 2.718 7.781 4.75 12.179 6.698Z" transform="matrix(6.10587 0 0 5.7495 97.762 11.845)"/></g></g></svg>