<svg data-name="Layer 1" width="718.509" height="601.718" viewBox="0 0 718.509 601.718" xmlns="http://www.w3.org/2000/svg"><path d="M633.317 36.553H.993a1.016 1.016 0 0 1 0-2.031h632.324a1.016 1.016 0 0 1 0 2.03Z" fill="#cacaca"/><ellipse cx="23.348" cy="11.169" rx="10.925" ry="11.169" fill="#3f3d56"/><ellipse cx="61.09" cy="11.169" rx="10.925" ry="11.169" fill="#3f3d56"/><ellipse cx="98.832" cy="11.169" rx="10.925" ry="11.169" fill="#3f3d56"/><path d="M610.7 2.768h-26.81a2.03 2.03 0 0 0 0 4.06h26.81a2.03 2.03 0 0 0 0-4.06Zm0 7.62h-26.81a2.03 2.03 0 0 0 0 4.06h26.81a2.03 2.03 0 0 0 0-4.06Zm0 7.61h-26.81a2.03 2.03 0 0 0 0 4.06h26.81a2.03 2.03 0 0 0 0-4.06Z" fill="#3f3d56"/><path d="M862.717 234.906h-575.94a12.048 12.048 0 0 0-12.03 12.03v1.94a12.048 12.048 0 0 0 12.03 12.03h575.94a12.048 12.048 0 0 0 12.03-12.03v-1.94a12.048 12.048 0 0 0-12.03-12.03Z" transform="translate(-262.029 -164.07)" fill="#f0f0f0" style="fill:#1f1e1e;fill-opacity:1"/><path d="M94.253 88.636H39.431a4.63 4.63 0 0 1 0-9.259h54.823c5.97-.083 6.03 9.343 0 9.26Zm164 0h-54.822a4.63 4.63 0 0 1 0-9.259h54.823c5.97-.083 6.03 9.343 0 9.26Zm164 0h-54.822a4.63 4.63 0 0 1 0-9.259h54.823c5.97-.083 6.03 9.343 0 9.26Z" fill="#fff"/><path d="M839.782 253.206H784.96a4.63 4.63 0 0 1 0-9.259h54.823c5.97-.083 6.03 9.343 0 9.26Z" transform="translate(-262.029 -164.07)" fill="#6c63ff" style="fill:#d7fe6a;fill-opacity:1"/><path fill="#fff" d="M490.218 70.836h2v26h-2z"/><path d="M285.263 455.648H50.211a7.909 7.909 0 0 1-7.9-7.9v-34.425a7.909 7.909 0 0 1 7.9-7.9h235.053a7.909 7.909 0 0 1 7.9 7.9v34.426a7.909 7.909 0 0 1-7.9 7.9Z" fill="#f0f0f0"/><path d="M262.425 450.32H55.54a7.909 7.909 0 0 1-7.9-7.9v-23.764a7.909 7.909 0 0 1 7.9-7.9h224.395a7.909 7.909 0 0 1 7.9 7.9v6.254a25.438 25.438 0 0 1-25.41 25.41Z" fill="#fff"/><path d="M191.061 428.087H96.588a2.037 2.037 0 1 1 0-4.074h94.473a2.037 2.037 0 0 1 0 4.074Zm47.825 8.333H96.588a2.038 2.038 0 1 1 0-4.075h142.298a2.038 2.038 0 0 1 0 4.075Z" fill="#e6e6e6"/><path d="M300.278 366.036H32.268a8.076 8.076 0 0 1-8.066-8.066V153.102a8.075 8.075 0 0 1 8.066-8.066h268.01a8.075 8.075 0 0 1 8.066 8.066V357.97a8.076 8.076 0 0 1-8.066 8.066Z" fill="#fff"/><path d="M300.278 367.036H32.268a9.077 9.077 0 0 1-9.066-9.066V153.102a9.077 9.077 0 0 1 9.066-9.066h268.01a9.077 9.077 0 0 1 9.066 9.066V357.97a9.077 9.077 0 0 1-9.066 9.066Zm-268.01-221a7.074 7.074 0 0 0-7.066 7.066V357.97a7.074 7.074 0 0 0 7.066 7.066h268.01a7.074 7.074 0 0 0 7.066-7.066V153.102a7.074 7.074 0 0 0-7.066-7.066Z" fill="#f0f0f0"/><path d="M24.821 327.036v30.934a7.458 7.458 0 0 0 7.447 7.447h268.01a7.458 7.458 0 0 0 7.447-7.447v-30.934Z" fill="#f0f0f0"/><path fill="#f0f0f0" d="m26.27 148.025 1.079-1.684 280.917 179.855-1.078 1.684z"/><path fill="#f0f0f0" d="m27.059 326.194 280.917-179.855 1.079 1.684L28.137 327.878z"/><path fill="#a0616a" d="m545.364 587.788-12.39-.001-5.895-47.789 18.287.001-.002 47.789z"/><path d="m545.034 583.739-13.22-5.37-.39-.16-7.3 5.53a15.542 15.542 0 0 0-15.53 14.87c-.02.22-.02.45-.02.68v.51h39.95v-16.06Z" fill="#2f2e41"/><path fill="#a0616a" d="m516.348 576.258-11.688 4.112-21.422-43.125 17.25-6.068 15.86 45.081z"/><path d="m514.693 572.548-14.253-.678-.421-.021-5.05 7.64a15.542 15.542 0 0 0-9.715 19.18c.054.215.13.432.207.649l.17.48 37.685-13.259-5.331-15.15Zm35.049-190.818c11.335-.44-2.706 89.89-2.706 89.89s4.107 79.305 3.237 83.467-.11 15.386-.11 15.386c-2.221-4.042-25.133-.991-25.133-.991l-3.116-80.376-15.914-64.4-22.062 43.168 21.146 66.26s8.563 7.925 7.652 11.056-23.34 10.193-27.462 10.353-2.261-5.072-2.46-10.224-19.597-52.905-26.419-69.153-1.518-39.157 1.964-55.804 21.804-47.889 21.804-47.889c22.741-25.65 58.244 9.696 69.58 9.257Z" fill="#2f2e41"/><path d="M411.605 308.732a9.159 9.159 0 0 0 13.72 2.995l27.258 17.784-.083-16.913-25.872-14.295a9.208 9.208 0 0 0-15.023 10.429Z" fill="#a0616a"/><path d="M543.855 396.21c-28.11.001-43.6-5.626-51.827-10.65-10.058-6.144-11.78-12.622-11.848-12.895l-.02-.079.98-12.32.428-.959a19.505 19.505 0 0 0 .734-14.007l-.03-.094.007-.1 6.573-85.244 23.26-7.619 6.766-6.799 30.128-.437 4.197 8.51 23.751 8.942-11.668 69.457-5.594 9.641 2.251 10.503-.016.095-7.338 43.8-.404.017q-5.429.243-10.33.238Z" fill="#3f3d56"/><path d="m471.133 343.029-11.028-6.538-.69-.998a15.734 15.734 0 0 0-12.455-6.748l-.128-.004-15.189-8.93 6.296-18.443 23.81 7.034 16.6-41.245a13.2 13.2 0 0 1 23.475-2.006 13.624 13.624 0 0 1 1.968 7.205v26.987l-.1.134Z" fill="#3f3d56"/><path d="M544.861 380.348a9.159 9.159 0 0 1 12.186-6.98l20.656-25.151 5.002 16.156-20.382 21.408a9.208 9.208 0 0 1-17.463-5.433Z" fill="#a0616a"/><path d="m575.744 377.17-13.716-13.718 8.731-21.275 12.654-17.278c-13.484-6.565-23.605-22.115-30.94-34.988l-.082-.145 1.826-14.304a18.367 18.367 0 0 1 3.874-9.143 18.37 18.37 0 0 1 29.909 1.71l24.591 54.668-.276.413-19.78 33.719-5.4 3.5Z" fill="#3f3d56"/><path d="M555.573 216.333a25.105 25.105 0 0 1-49.75-6.771l.048-.357a25.105 25.105 0 0 1 49.694 7.127Z" fill="#a0616a"/><path d="M549.184 229.263c1.289-2.618 2.613-5.43 2.25-8.326s-3.202-5.665-5.991-4.804c-1.668.514-2.929 2.161-4.672 2.246-2.399.116-3.774-2.63-4.52-4.913l-3.042-9.296a25.154 25.154 0 0 1-20.891 4.72c-2.823-.645-5.676-1.903-7.332-4.28s-1.646-6.061.625-7.858c1.114-.88 2.597-1.216 3.661-2.156a4.102 4.102 0 0 0-3.275-7.138l7.656-.957-2.28-4.126a7.535 7.535 0 0 0 5.99 1.099c2.06-.371 4.001-1.22 6.016-1.785a23.152 23.152 0 0 1 25.755 10.815 9.802 9.802 0 0 1 10.687 3.086c2.05 2.601 2.607 6.073 2.686 9.384a40.715 40.715 0 0 1-4.15 18.86 15.451 15.451 0 0 1-3.487 4.946 6.978 6.978 0 0 1-5.601 1.832" fill="#2f2e41"/><path d="M404.402 367.503a38.992 38.992 0 0 0 5.04 16.616c6.127 10.761 16.635 18.552 27.952 23.183 14.139 5.786 29.9 5.964 44.905 4.674 13.936-1.198 27.731-3.976 41.72-4.548a290.674 290.674 0 0 1 32.434.774c20.932 1.485 41.777 4.242 62.487 7.584q8.413 1.34 16.791 2.881a8.305 8.305 0 0 1 1.56.29c.101.041.264.009.357.067.169.106-.682-.269-.166.157a15.474 15.474 0 0 1 1.912 2.461l7.649 9.843c2.193 2.823 4.229 6.253 7.064 8.478a12.79 12.79 0 0 0 14.16.986 14.15 14.15 0 0 0 5.264-5.98 51.617 51.617 0 0 1 6.262-9.038c9.1-10.616 21.747-17.145 32.325-26.078a57.575 57.575 0 0 0 12.928-14.778 41.79 41.79 0 0 0 5.341-16.594c1.267-11.872-2.376-23.978-8.503-34.077a68.072 68.072 0 0 0-27.634-25.294c-12.802-6.522-26.968-9.699-41.168-11.282-15.076-1.68-30.328-1.676-45.478-1.506q-25.504.284-50.915 2.243-25.446 1.97-50.691 5.6c-16.15 2.321-32.496 4.741-48.304 8.85-13.965 3.629-27.89 9.302-38.319 19.58-9.272 9.14-15.72 21.646-14.973 34.908Z" transform="translate(-262.029 -164.07)" fill="#6c63ff" style="fill:#d7fe6a;fill-opacity:1"/><path d="M482.463 371.28a5.007 5.007 0 0 1-4.743-5.625l.359-2.824a3.373 3.373 0 0 0-1.098-2.937l-2.122-1.896a4.993 4.993 0 0 1 2.395-8.629l2.797-.531a3.367 3.367 0 0 0 2.454-1.95l1.148-2.607a4.994 4.994 0 0 1 8.946-.388l1.369 2.496a3.368 3.368 0 0 0 2.614 1.733l2.832.286a4.993 4.993 0 0 1 3.134 8.389l-1.95 2.073a3.361 3.361 0 0 0-.839 3.02l.602 2.783a4.993 4.993 0 0 1-7.009 5.572l-2.575-1.213a3.36 3.36 0 0 0-3.132.134l-2.46 1.433a4.999 4.999 0 0 1-2.722.68Zm40.095-1.165a5.043 5.043 0 0 1-3.363-1.501 5.173 5.173 0 0 1-1.354-4.323l.329-2.592a3.432 3.432 0 0 0-1.118-2.992l-1.968-1.759a5.133 5.133 0 0 1-1.8-4.028 4.991 4.991 0 0 1 4.066-4.715l2.764-.526a3.431 3.431 0 0 0 2.5-1.988l1.03-2.34a5.225 5.225 0 0 1 4.407-3.206 4.968 4.968 0 0 1 4.644 2.584l1.352 2.467a3.433 3.433 0 0 0 2.666 1.765l2.624.265a5.13 5.13 0 0 1 3.825 2.204 4.993 4.993 0 0 1-.518 6.202l-1.928 2.05a3.43 3.43 0 0 0-.854 3.074l.555 2.571a5.155 5.155 0 0 1-.906 4.319 4.98 4.98 0 0 1-6.063 1.435l-2.549-1.201a3.43 3.43 0 0 0-3.187.138l-2.432 1.417a4.999 4.999 0 0 1-2.722.68Zm40.199-.17a5.007 5.007 0 0 1-4.743-5.624l.36-2.825a3.373 3.373 0 0 0-1.098-2.937l-2.122-1.896a4.993 4.993 0 0 1 2.395-8.628l2.797-.532a3.367 3.367 0 0 0 2.453-1.949l1.148-2.607a4.994 4.994 0 0 1 8.947-.388l1.369 2.496a3.368 3.368 0 0 0 2.614 1.733l2.832.286a4.993 4.993 0 0 1 3.134 8.388l-1.95 2.074a3.361 3.361 0 0 0-.839 3.019l.602 2.784a4.993 4.993 0 0 1-7.009 5.572l-2.575-1.214a3.36 3.36 0 0 0-3.132.135l-2.461 1.433a4.999 4.999 0 0 1-2.722.68Z" transform="translate(-262.029 -164.07)" fill="#fff" style="fill:#000;fill-opacity:1"/><path d="M601.858 368.884a5.007 5.007 0 0 1-4.743-5.624l.36-2.825a3.373 3.373 0 0 0-1.099-2.937l-2.121-1.896a4.993 4.993 0 0 1 2.395-8.628l2.797-.531a3.367 3.367 0 0 0 2.453-1.95l1.148-2.607a4.994 4.994 0 0 1 8.947-.388l1.368 2.496a3.368 3.368 0 0 0 2.615 1.733l2.832.286a4.993 4.993 0 0 1 3.134 8.388l-1.95 2.074a3.361 3.361 0 0 0-.84 3.019l.602 2.784a4.993 4.993 0 0 1-7.008 5.572l-2.575-1.214a3.36 3.36 0 0 0-3.133.135l-2.46 1.433a4.999 4.999 0 0 1-2.722.68Z" transform="translate(-262.029 -164.07)" opacity=".2" style="fill:#000;fill-opacity:1;opacity:1"/><path d="M378.93 203.754a5.007 5.007 0 0 1-4.743-5.625l.359-2.824a3.373 3.373 0 0 0-1.098-2.937l-2.122-1.896a4.993 4.993 0 0 1 2.395-8.629l2.798-.531a3.367 3.367 0 0 0 2.453-1.95l1.148-2.607a4.994 4.994 0 0 1 8.946-.388l1.37 2.496a3.368 3.368 0 0 0 2.614 1.733l2.831.286a4.993 4.993 0 0 1 3.134 8.389l-1.95 2.073a3.361 3.361 0 0 0-.838 3.02l.601 2.783a4.993 4.993 0 0 1-7.008 5.572l-2.576-1.213a3.36 3.36 0 0 0-3.132.134l-2.46 1.433a4.999 4.999 0 0 1-2.722.68Z" opacity=".2"/><path d="m628.041 537.37 1.145-25.72a83.066 83.066 0 0 1 38.744-9.808c-18.608 15.214-16.283 44.54-28.899 65a49.964 49.964 0 0 1-36.64 23.088l-15.571 9.534a83.724 83.724 0 0 1 17.647-67.845 80.874 80.874 0 0 1 14.863-13.81c3.73 9.834 8.712 19.56 8.712 19.56Z" fill="#f2f2f2"/><path d="M717.318 601.718H299.936a1.19 1.19 0 1 1 0-2.381h417.382a1.19 1.19 0 1 1 0 2.381Z" fill="#cacaca"/></svg>