<svg data-name="Layer 1" width="905.336" height="646.071" viewBox="0 0 905.336 646.071"
    xmlns="http://www.w3.org/2000/svg">
    <circle cx="70.668" cy="51.349" r="38" fill="#ff6584" />
    <path
        d="M305.608 620.255a296.198 296.198 0 0 0 94.978 21.982c15.3.953 30.89 1 46.11-1.022 13.337-1.772 26.884-5.406 38.002-13.27a56.371 56.371 0 0 0 22.008-33.103c3.4-14.06 1.969-28.793-2.887-42.336a105.48 105.48 0 0 0-23.248-37.561c-9.245-9.463-22.195-18.07-36.043-16.45-13.311 1.557-22.992 12.318-26.537 24.767-4.25 14.926.64 30.715 7.271 44.152 11.25 22.793 29.302 41.926 50.682 55.529a146.883 146.883 0 0 0 71.739 22.989c25.556 1.15 53.042-4.775 73.178-21.287a64.09 64.09 0 0 0 21.612-33.627c3.576-13.959 2.64-28.7-.453-42.654-6.718-30.293-24.46-56.332-34.734-85.327a137.23 137.23 0 0 1-5.863-21.745c-.338-1.898-3.23-1.094-2.893.797 5.313 29.829 22.126 55.511 33.163 83.29 10.053 25.303 16.037 56.367 1.145 81.073-13.397 22.225-40.003 33.057-64.816 35.823-24.262 2.704-49.1-1.643-71.342-11.583-22.387-10.004-42.449-25.588-57.003-45.387-7.911-10.761-14.726-22.95-18.22-35.9-3.577-13.256-2.738-28.27 6.723-38.977a26.296 26.296 0 0 1 16.348-8.933c6.604-.827 13.218 1.024 19.023 4.109 12.463 6.624 21.737 18.137 28.893 30.043 7.393 12.301 12.602 26.244 13.118 40.698.481 13.437-3.045 27.215-11.123 38.093-16.678 22.457-48.023 25.184-73.748 25.356a293.206 293.206 0 0 1-92.858-14.487q-10.866-3.55-21.428-7.945c-1.781-.74-2.558 2.162-.798 2.893Z"
        fill="#e6e6e6" />
    <path
        d="m227.623 522.925-8.057-12.367a6.507 6.507 0 0 1 1.899-8.994l49.073-38.145a6.507 6.507 0 0 1 8.994 1.898l8.056 12.367a6.507 6.507 0 0 1-1.898 8.994l-49.073 38.145a6.507 6.507 0 0 1-8.994-1.898Z"
        fill="#2f2e41" />
    <path
        d="m221.518 501.62 12.942-7.095a6.507 6.507 0 0 1 8.825 2.576l34.365 61.918a6.507 6.507 0 0 1-2.576 8.824l-12.943 7.094a6.507 6.507 0 0 1-8.824-2.575l-34.365-61.918a6.507 6.507 0 0 1 2.576-8.824Z"
        fill="#2f2e41" />
    <path
        d="M131.556 387.679a6.5 6.5 0 0 1-6.477-6.076l-.964-14.728a6.5 6.5 0 0 1 6.061-6.91l115.387-7.557a13.88 13.88 0 1 1 1.814 27.7l-115.387 7.556q-.218.014-.434.015Z"
        fill="#F2681B" />
    <path
        d="M154.308 389.578a6.508 6.508 0 0 1-6.492-6.258l-.823-21.998a6.5 6.5 0 0 1 6.253-6.738l94.887-3.547a6.5 6.5 0 0 1 6.738 6.253l.822 21.998a6.5 6.5 0 0 1-6.253 6.738l-94.886 3.547a5.983 5.983 0 0 1-.246.005Z"
        fill="#ccc" />
    <path
        d="M306.668 622.156v-47.74c0-41.673-18.181-81.638-50.622-107.796-24.248-19.551-59.369-34.171-109.682-30.904l19.167-76.667L0 472.307l162.046 113.258-16.553-72.31s101.061-19.168 161.175 108.9Z"
        fill="#3f3d56" />
    <path
        d="m190.903 546.695-11.938-8.68a6.507 6.507 0 0 1-1.434-9.079l72.341-99.494a6.507 6.507 0 0 1 9.08-1.435l11.938 8.68a6.507 6.507 0 0 1 1.434 9.08l-72.341 99.494a6.507 6.507 0 0 1-9.08 1.435Z"
        fill="#2f2e41" />
    <path
        d="m177.6 528.969 9.56-11.244a6.507 6.507 0 0 1 9.163-.741l54.19 45.586a6.507 6.507 0 0 1 .742 9.163l-9.56 11.244a6.507 6.507 0 0 1-9.163.742l-54.19-45.587a6.507 6.507 0 0 1-.742-9.163Z"
        fill="#2f2e41" />
    <circle cx="243.083" cy="276.966" r="51" fill="#F2681B" />
    <path
        d="M220.648 299.429a12.095 12.095 0 0 1-5.027-.98 8.133 8.133 0 0 1-4.38-5.285 5.472 5.472 0 0 1 .896-4.78c1.332-1.708 3.632-2.521 6.338-2.313l-6.697-18.75 1.883-.673 7.874 22.042-1.776-.403c-2.058-.465-4.727-.363-6.044 1.327a3.514 3.514 0 0 0-.533 3.07 6.146 6.146 0 0 0 3.262 3.942c2.783 1.257 6.041.81 9.703.146l.356 1.968a32.963 32.963 0 0 1-5.855.689Zm-28.649-26.211 10.542-2.215.41 1.957-10.541 2.215zm33.273-6.991 10.542-2.215.41 1.957-10.541 2.215z"
        fill="#2f2e41" />
    <path
        d="M285.668 495.849h-86a8.51 8.51 0 0 1-8.5-8.5l18.004-138.064a8.49 8.49 0 0 1 8.496-8.436h30.52a46.032 46.032 0 0 1 45.98 45.98v100.52a8.51 8.51 0 0 1-8.5 8.5Z"
        fill="#ccc" />
    <path
        d="M151.37 438.203a6.51 6.51 0 0 1-5.94-3.839l-6.041-13.467a6.5 6.5 0 0 1 3.27-8.59l105.505-47.33a13.88 13.88 0 1 1 11.361 25.327l-105.504 47.331a6.464 6.464 0 0 1-2.65.57Z"
        fill="#F2681B" />
    <path
        d="M182.144 431.251a6.51 6.51 0 0 1-5.94-3.84l-10.319-23.001a6.507 6.507 0 0 1 3.27-8.591l86.635-38.865a6.5 6.5 0 0 1 8.59 3.27l10.32 23.002a6.5 6.5 0 0 1-3.27 8.59l-86.635 38.865a6.472 6.472 0 0 1-2.651.57Z"
        fill="#ccc" />
    <path
        d="M231.767 244.989c-8.304-3.058-15.13 5-22.654 6.845-7.198 1.765-14.953-2.387-18.798-8.44-4.486-7.06-3.375-16.227.706-23.198 4.47-7.634 12.428-12.319 20.864-14.365 9.668-2.345 19.741-1.191 29.283 1.19a121.851 121.851 0 0 1 26.443 9.521c7.61 3.939 14.823 9.327 19.27 16.79 4.042 6.782 6.042 15.223 4.042 22.994a24.205 24.205 0 0 1-6.146 10.626c-3.012 3.189-6.463 5.953-9.272 9.335-4.247 5.114-7.101 13.496-2.914 19.545a9.793 9.793 0 0 0 3.551 3.147c1.71.89 3.23-1.697 1.514-2.59-3.011-1.57-4.105-4.753-4.024-7.998a16.272 16.272 0 0 1 3.994-9.983c2.942-3.535 6.58-6.397 9.686-9.777a27.022 27.022 0 0 0 6.412-11.162c2.207-8.09.481-16.902-3.426-24.19-4.229-7.888-11.317-13.844-19.03-18.173-8.394-4.71-17.724-7.867-26.987-10.374-9.939-2.69-20.375-4.205-30.603-2.343-8.866 1.613-17.53 5.893-23.106 13.135-5.204 6.76-7.69 15.974-5.174 24.292a22.235 22.235 0 0 0 16.697 15.052 19.101 19.101 0 0 0 11.613-1.515c3.897-1.746 7.437-4.461 11.582-5.622a8.94 8.94 0 0 1 5.68.151c1.814.669 2.596-2.23.797-2.893Z"
        fill="#2f2e41" />
    <path
        d="M598.668 448.189v-47.74c0-41.673 18.181-81.639 50.622-107.796 24.248-19.552 59.369-34.172 109.682-30.905l-19.167-76.667 165.531 113.258L743.29 411.598l16.553-72.311S658.782 320.12 598.668 448.189Z"
        fill="#3f3d56" />
    <path
        d="M688.645 209.335a13.88 13.88 0 0 1 7.244-24.602l114.98-12.277a6.507 6.507 0 0 1 7.153 5.773l-.497.053.497-.053 1.567 14.676a6.5 6.5 0 0 1-5.773 7.154l-114.98 12.276a14.096 14.096 0 0 1-1.5.08 13.775 13.775 0 0 1-8.69-3.08Zm33.87 101.389v-14.76a6.507 6.507 0 0 1 6.5-6.5h123.014a6.507 6.507 0 0 1 6.5 6.5v14.76a6.507 6.507 0 0 1-6.5 6.5H729.015a6.507 6.507 0 0 1-6.5-6.5Z"
        fill="#F2681B" />
    <path
        d="M663.699 311.442a6.459 6.459 0 0 1-3.249-3.768l-4.627-14.015a6.507 6.507 0 0 1 4.134-8.21l116.812-38.57a6.5 6.5 0 0 1 8.21 4.135l-.475.157.475-.157 4.628 14.015a6.507 6.507 0 0 1-4.135 8.21l-116.811 38.569a6.461 6.461 0 0 1-4.962-.366Z"
        fill="#F2681B" />
    <path
        d="m816.841 315.772-52.425-47.269a6.508 6.508 0 0 1-.475-9.18l9.884-10.962a6.501 6.501 0 0 1 9.18-.474l52.425 47.269a6.508 6.508 0 0 1 .475 9.18l-9.884 10.961a6.456 6.456 0 0 1-4.492 2.139q-.172.01-.343.01a6.453 6.453 0 0 1-4.345-1.674Z"
        fill="#F2681B" />
    <circle cx="683.56" cy="94.959" r="51" fill="#F2681B" />
    <path
        d="M623.87 297.361a39.785 39.785 0 0 1 0-40.194l54.06-93.636a6.5 6.5 0 0 1 11.259 0l83.24 144.177a6.5 6.5 0 0 1-5.629 9.75H658.679a39.784 39.784 0 0 1-34.81-20.097Z"
        fill="#ccc" />
    <path
        d="M725.598 114.367c3.305-.092 7.42-.206 10.589-2.522a8.134 8.134 0 0 0 3.2-6.072 5.471 5.471 0 0 0-1.86-4.494c-1.656-1.4-4.073-1.727-6.678-.961l2.699-19.726-1.982-.271-3.173 23.19 1.655-.76c1.918-.88 4.551-1.327 6.188.056a3.515 3.515 0 0 1 1.152 2.895 6.148 6.148 0 0 1-2.38 4.528c-2.468 1.802-5.747 2.034-9.467 2.138Zm-16.251-32.073h10.772v2h-10.772zM653.321 34.81a42.233 42.233 0 0 0-21.246-27.278 40.882 40.882 0 0 0-35.083-1.088 40.417 40.417 0 0 0-23.244 27.143 42.153 42.153 0 0 0-.64 18.489 47.958 47.958 0 0 0 8.098 18.001c3.951 5.721 8.595 10.913 12.86 16.394a152.006 152.006 0 0 1 11.666 17.3 153.067 153.067 0 0 1 19.574 59.127 91.181 91.181 0 0 1 .46 18.985c-1.149 12.286-5.909 24.32-16.833 31.005-5.809 3.554-12.512 5.39-19.143 6.674a87.125 87.125 0 0 1-22.657 1.77c-12.843-.912-25.696-6.272-33.154-17.187a30.62 30.62 0 0 1-3.838-7.885c-.594-1.841 2.301-2.63 2.893-.797 3.95 12.247 15.94 19.797 28.074 22.099a68.674 68.674 0 0 0 22.826-.022c6.862-1.025 13.934-2.443 20.223-5.471a30.284 30.284 0 0 0 13.56-12.536 44.192 44.192 0 0 0 4.994-17.088c1.336-13.084-.84-26.63-4.1-39.285a151.204 151.204 0 0 0-15.9-38.613 148.486 148.486 0 0 0-11.813-17.286c-4.298-5.417-8.882-10.627-12.758-16.366a49.304 49.304 0 0 1-7.925-18.022 45.675 45.675 0 0 1 .326-18.785 43.288 43.288 0 0 1 21.89-28.775c10.808-5.7 23.976-7.066 35.537-2.865a45.386 45.386 0 0 1 25.41 23.375 43.27 43.27 0 0 1 2.836 8.19c.442 1.878-2.45 2.679-2.893.797Z"
        fill="#2f2e41" />
    <path
        d="M643.573 37.249a23.094 23.094 0 0 0-26.966-14.86c-1.878.438-2.68-2.454-.798-2.894a25.815 25.815 0 0 1 30.657 16.957c.63 1.83-2.268 2.615-2.893.797Zm-.457 10.842a5.506 5.506 0 0 1 2.881-7.224l13.781-5.924a5.5 5.5 0 0 1 4.344 10.107l-13.781 5.923a5.5 5.5 0 0 1-7.225-2.882Z"
        fill="#2f2e41" />
    <path
        d="m677.036 329.169-14.712-1.194a6.508 6.508 0 0 1-5.952-7.005l9.357-115.255a13.88 13.88 0 1 1 27.669 2.246l-9.358 115.255a6.5 6.5 0 0 1-6.468 5.975 6.42 6.42 0 0 1-.536-.022Z"
        fill="#F2681B" />
    <path
        d="M12.97 99.685C7.712 87.394 14.919 71.358 27.6 67.13s28.07 4.273 31.242 17.26a34.941 34.941 0 1 1 66.795-7.505c7.644-11.27 24.047-15.526 36.208-9.395s18.491 21.85 13.976 34.698l-167.377-.3M351.97 239.685c-5.258-12.291 1.949-28.326 14.63-32.555s28.07 4.273 31.242 17.26a34.941 34.941 0 1 1 66.795-7.505c7.644-11.27 24.047-15.526 36.208-9.395s18.491 21.85 13.976 34.698l-167.377-.3"
        fill="#f2f2f2" />
</svg>
